<svg width="69" height="61" viewBox="0 0 69 61" fill="none" xmlns="http://www.w3.org/2000/svg">
<path d="M23.8565 47.8048L35.2547 17.1172H43.6014L26.3843 59.9997H19.1181L1.90096 17.1172H10.5834L21.9816 47.8048L22.9191 50.3286L23.8565 47.8048Z" fill="white" stroke="white" stroke-width="2"/>
<path d="M60.9738 3.81283H51.7885V1H67.361V3.82363L61.0689 9.79577L59.5944 11.1953L61.6029 11.5091C63.2877 11.7723 64.8136 12.3377 65.9048 13.3102C66.9619 14.2525 67.6967 15.6512 67.6967 17.7963V17.9082C67.6967 20.1185 66.8988 21.9712 65.497 23.2763C64.0908 24.5855 61.999 25.4146 59.2949 25.4146C55.4549 25.4146 52.6593 23.9961 50.6317 21.9824L53.1004 19.6548C54.8457 21.3669 56.8236 22.3779 59.4069 22.3779C60.6566 22.3779 61.8196 22.016 62.6897 21.2941C63.5756 20.559 64.1004 19.4937 64.1004 18.244V18.1321C64.1004 16.7204 63.4456 15.5733 62.3089 14.8216C61.2184 14.1005 59.7409 13.7743 58.0637 13.7743H56.4998L55.9206 11.385L61.6873 5.51354L63.3576 3.81283H60.9738Z" fill="white" stroke="white" stroke-width="2"/>
</svg>
