<?xml version="1.0" encoding="UTF-8" standalone="no"?>
<!DOCTYPE svg PUBLIC "-//W3C//DTD SVG 1.1//EN" "http://www.w3.org/Graphics/SVG/1.1/DTD/svg11.dtd">
<svg width="100%" height="100%" viewBox="0 0 8150 2759" version="1.1" xmlns="http://www.w3.org/2000/svg" xmlns:xlink="http://www.w3.org/1999/xlink" xml:space="preserve" xmlns:serif="http://www.serif.com/" style="fill-rule:evenodd;clip-rule:evenodd;stroke-linejoin:round;stroke-miterlimit:2;">
    <g transform="matrix(4.16667,0,0,4.16667,0,0)">
        <path d="M1232.01,110.436L1440.73,551.626L1504.84,551.626L1295.41,110.436L1232.01,110.436ZM1432.2,155.696L1432.27,155.834C1432.31,155.92 1432.36,156.006 1432.4,156.093L1463.42,219.147C1464.73,221.811 1468.66,221.811 1469.97,219.147L1500.97,156.131C1501.02,156.024 1501.07,155.919 1501.12,155.812L1501.18,155.696C1503.52,150.76 1504.84,145.246 1504.84,139.429C1504.84,118.43 1487.73,101.344 1466.69,101.344C1445.66,101.344 1428.55,118.43 1428.55,139.429C1428.55,145.246 1429.86,150.76 1432.21,155.696L1432.2,155.696ZM1306.31,507.426L1306.24,507.289C1306.2,507.203 1306.16,507.117 1306.12,507.031L1275.1,443.976C1273.79,441.312 1269.86,441.312 1268.55,443.976L1237.55,506.992C1237.49,507.099 1237.44,507.204 1237.39,507.312L1237.33,507.426L1237.34,507.426C1234.99,512.364 1233.67,517.877 1233.67,523.693C1233.67,544.693 1250.79,561.779 1271.82,561.779C1292.86,561.779 1309.97,544.693 1309.97,523.693C1309.97,517.877 1308.65,512.364 1306.31,507.426Z" style="fill:url(#_Linear1);"/>
        <path d="M1793.29,221.381L1793.29,333.177C1793.29,349.786 1788.03,363.6 1777.65,374.23C1767.41,384.74 1754.53,390.125 1739.38,390.235C1724.23,390.125 1711.35,384.74 1701.1,374.23C1690.73,363.6 1685.46,349.786 1685.46,333.177L1685.46,221.386L1633.35,221.23L1633.35,330.631C1633.35,364.797 1642.33,390.188 1661.62,410.53C1681.16,431.138 1707.18,441.686 1738.94,441.886L1739.45,441.892L1739.96,441.888L1739.96,441.886C1771.66,441.654 1797.62,431.106 1817.13,410.53C1836.42,390.188 1845.4,364.797 1845.4,330.631L1845.4,221.535L1793.29,221.381Z" style="fill:white;fill-rule:nonzero;"/>
        <path d="M323.139,223L322.898,223.671C320.103,231.408 273.323,362.193 271.79,365.774C265.031,381.566 256.068,389.243 244.392,389.243C232.717,389.243 223.754,381.566 216.992,365.774C215.461,362.197 168.686,231.425 165.886,223.671L165.645,223L110.373,223L110.866,224.358C146.529,322.789 164.63,371.815 169.558,383.327C179.543,406.649 191.288,422.736 205.464,432.506C216.698,440.249 229.068,443.855 244.392,443.855C259.715,443.855 272.084,440.249 283.319,432.506C297.497,422.732 309.241,406.645 319.225,383.327C324.15,371.823 342.25,322.796 377.916,224.358L378.408,223L323.139,223Z" style="fill:white;fill-rule:nonzero;"/>
        <path d="M1053.23,314.781L936.665,314.781L936.777,314.251C936.816,314.067 940.817,295.666 952.303,284.06C964.527,271.709 979.432,265.182 995.408,265.182C998.211,265.182 1001.06,265.395 1003.88,265.814C1016.24,267.875 1027.88,274.13 1037.55,283.904C1049.14,295.615 1053.09,314.068 1053.12,314.253L1053.23,314.781ZM994.443,219.253C933.214,219.253 883.401,269.581 883.401,331.441C883.401,358.562 892.866,384.573 910.05,404.683C927.182,424.73 951.286,438.118 977.92,442.381C997.467,445.509 1016.54,443.566 1034.62,436.605C1049.83,430.751 1063.81,421.454 1075.11,409.704L1038.88,380.383C1036.24,382.886 1021.07,396.137 995.718,396.57C993.074,396.618 990.292,396.406 986.956,395.907C973.995,393.754 961.691,387.341 952.303,377.849C945.538,371.02 938.108,353.21 937.795,352.455L937.542,351.847L1101.87,351.847C1103.35,343.535 1111.92,284.668 1067.41,246.194C1053.2,233.903 1029,219.253 994.443,219.253Z" style="fill:white;fill-rule:nonzero;"/>
        <path d="M806.905,434.224C845.207,417.514 846.93,385.933 847.444,373.706C848.96,337.638 814.886,323.21 803.557,318.72C786.044,311.779 745.119,303.712 734.3,299.836C728.677,297.821 724.118,295.046 720.251,291.938C717.588,289.799 711.076,277.662 723.582,270.312C727.865,267.796 736.426,264.307 754.342,264.307C790.633,264.307 810.754,280.561 818.649,286.281L847.411,251.762C832.739,238.976 817.871,230.895 802.506,226.029C788.341,221.544 773.285,219.253 757.729,219.253C739.396,219.253 701.876,222.19 678.772,251.315C670.339,261.946 653.574,300.231 687.347,327.575C707.554,343.935 736.66,350.914 753.522,354.402C765.392,356.858 786.077,362.025 792.787,368.735C795.121,371.069 796.773,373.752 796.367,377.468C794.484,394.656 770.654,397.287 755.847,397.287C742.486,397.287 729.948,394.833 718.159,391.314C698.123,385.334 682.283,370.093 682.283,370.093L655.546,404.969C655.546,404.969 668.827,421.651 701.254,434.292C717.951,440.801 765.794,452.158 806.905,434.224Z" style="fill:white;fill-rule:nonzero;"/>
        <path d="M567.827,223.357L567.827,335.149C567.827,351.758 562.567,365.571 552.192,376.202C541.946,386.711 529.066,392.095 513.919,392.207C498.766,392.095 485.887,386.711 475.641,376.202C465.267,365.571 460.006,351.758 460.006,335.149L460.006,223.361L407.892,223.207L407.892,332.604C407.892,366.769 416.876,392.159 436.165,412.5C455.705,433.108 481.717,443.655 513.479,443.855L513.991,443.862L514.499,443.858L514.499,443.855C546.197,443.624 572.159,433.076 591.667,412.5C610.956,392.159 619.941,366.769 619.941,332.604L619.941,223.51L567.827,223.357Z" style="fill:white;fill-rule:nonzero;"/>
    </g>
    <defs>
        <linearGradient id="_Linear1" x1="0" y1="0" x2="1" y2="0" gradientUnits="userSpaceOnUse" gradientTransform="matrix(-217.715,-466.892,466.892,-217.715,1477.76,564.253)"><stop offset="0" style="stop-color:rgb(240,84,100);stop-opacity:1"/><stop offset="0.5" style="stop-color:rgb(193,174,36);stop-opacity:1"/><stop offset="0.8" style="stop-color:rgb(77,171,132);stop-opacity:1"/><stop offset="1" style="stop-color:rgb(0,179,190);stop-opacity:1"/></linearGradient>
    </defs>
</svg>
