<?xml version="1.0" encoding="utf-8"?>
<!-- Generator: Adobe Illustrator 25.1.0, SVG Export Plug-In . SVG Version: 6.00 Build 0)  -->
<svg version="1.1" id="Calque_1" xmlns="http://www.w3.org/2000/svg" xmlns:xlink="http://www.w3.org/1999/xlink" x="0px" y="0px"
	 viewBox="0 0 25 46" style="enable-background:new 0 0 25 46;" xml:space="preserve">
<style type="text/css">
	.st0{fill:#FFFFFF;}
</style>
<path class="st0" d="M21.72,19.39v5.27c0,5.01-4.14,9.07-9.22,9.07c-5.09,0-9.22-4.07-9.22-9.07v-5.27H0.49v5.27
	c0,6.05,4.65,11.05,10.62,11.74v6.86H0V46h12.17h0.65H25v-2.74H13.89v-6.86c5.97-0.69,10.62-5.69,10.62-11.74v-5.27H21.72z
	 M5.31,7.08v17.07c0,3.9,3.22,7.08,7.19,7.08c3.97,0,7.19-3.17,7.19-7.08v-0.5h-2.04h-3.48v-2h3.48h2.04V18.7h-2.04h-3.48V16.7h3.48
	h2.04v-2.93h-2.04h-3.48v-2.01h3.48h2.04V8.83h-2.04h-3.48V6.83h3.25h2.26C19.56,3.04,16.39,0,12.51,0C8.53,0,5.31,3.17,5.31,7.08z"
	/>
</svg>
