<?xml version="1.0" encoding="UTF-8" standalone="no"?>
<!DOCTYPE svg PUBLIC "-//W3C//DTD SVG 1.1//EN" "http://www.w3.org/Graphics/SVG/1.1/DTD/svg11.dtd">
<svg width="100%" height="100%" viewBox="0 0 123 197" version="1.1" xmlns="http://www.w3.org/2000/svg" xmlns:xlink="http://www.w3.org/1999/xlink" xml:space="preserve" xmlns:serif="http://www.serif.com/" style="fill-rule:evenodd;clip-rule:evenodd;stroke-linejoin:round;stroke-miterlimit:2;">
    <g transform="matrix(4.16667,0,0,4.16667,122.933,103.25)">
        <path d="M0,-2.28C0,-4.521 -2.936,-4.37 -2.936,-2.28C-2.936,4.948 -8.226,10.807 -14.752,10.807C-21.278,10.807 -26.568,4.948 -26.568,-2.28C-26.568,-4.677 -29.504,-4.521 -29.504,-2.28C-29.504,5.981 -23.963,12.792 -16.776,13.887L-16.776,19.625L-19.63,19.625C-21.212,19.625 -22.495,20.907 -22.495,22.49L-22.495,22.5L-6.745,22.5L-6.745,22.49C-6.745,20.907 -8.027,19.625 -9.609,19.625L-12.463,19.625L-12.463,13.842C-5.406,12.621 0,5.879 0,-2.28M-14.62,6.032C-10.271,6.032 -6.745,2.506 -6.745,-1.843L-6.745,-2.684L-11.919,-2.684C-12.555,-2.684 -13.07,-3.199 -13.07,-3.835C-13.07,-4.47 -12.555,-4.986 -11.919,-4.986L-6.745,-4.986L-6.745,-7.287L-11.919,-7.287C-12.555,-7.287 -13.07,-7.802 -13.07,-8.438C-13.07,-9.073 -12.555,-9.589 -11.919,-9.589L-6.745,-9.589L-6.745,-11.89L-11.919,-11.89C-12.555,-11.89 -13.07,-12.405 -13.07,-13.041C-13.07,-13.676 -12.555,-14.192 -11.919,-14.192L-6.745,-14.192L-6.745,-16.493L-11.919,-16.493C-12.555,-16.493 -13.07,-17.008 -13.07,-17.644C-13.07,-18.28 -12.555,-18.795 -11.919,-18.795L-6.982,-18.795C-7.83,-22.23 -10.923,-24.78 -14.62,-24.78C-18.969,-24.78 -22.495,-21.255 -22.495,-16.905L-22.495,-1.843C-22.495,2.506 -18.969,6.032 -14.62,6.032" style="fill:white;fill-rule:nonzero;"/>
    </g>
</svg>
