<?xml version="1.0" encoding="UTF-8" standalone="no"?>
<!DOCTYPE svg PUBLIC "-//W3C//DTD SVG 1.1//EN" "http://www.w3.org/Graphics/SVG/1.1/DTD/svg11.dtd">
<svg width="100%" height="100%" viewBox="0 0 159 233" version="1.1" xmlns="http://www.w3.org/2000/svg" xmlns:xlink="http://www.w3.org/1999/xlink" xml:space="preserve" xmlns:serif="http://www.serif.com/" style="fill-rule:evenodd;clip-rule:evenodd;stroke-linejoin:round;stroke-miterlimit:2;">
    <g transform="matrix(4.16667,0,0,4.16667,-2136.52,-927.571)">
        <path d="M548.361,229.613L515.088,229.613L515.088,224.941L548.361,224.941L548.361,229.613ZM545.138,235.809C545.138,242.098 536.853,247.733 533.291,249.865C532.94,250.075 532.726,250.453 532.726,250.862C532.726,251.27 532.94,251.649 533.291,251.858C535.344,253.087 538.312,255.075 540.791,257.567C543.675,260.467 545.138,263.275 545.138,265.915C545.138,266.977 545.038,268.032 544.844,269.062L518.604,269.062C518.411,268.032 518.312,266.978 518.312,265.915C518.312,259.626 526.596,253.99 530.158,251.858C530.509,251.649 530.723,251.27 530.723,250.862C530.723,250.453 530.509,250.075 530.158,249.865C528.104,248.636 525.137,246.649 522.657,244.156C519.773,241.257 518.312,238.448 518.312,235.809C518.312,234.493 518.462,233.194 518.758,231.936L544.689,231.936C544.985,233.194 545.138,234.493 545.138,235.809M548.361,276.058L515.088,276.058L515.088,271.386L548.361,271.386L548.361,276.058ZM550.685,230.774L550.685,223.778C550.685,223.137 550.164,222.617 549.522,222.617L513.926,222.617C513.284,222.617 512.764,223.137 512.764,223.778L512.764,230.774C512.764,231.416 513.284,231.936 513.926,231.936L516.378,231.936C516.119,233.201 515.987,234.499 515.987,235.809C515.987,239.084 517.678,242.444 521.01,245.795C523.062,247.857 525.408,249.585 527.368,250.862C525.408,252.139 523.062,253.866 521.01,255.929C517.678,259.279 515.987,262.639 515.987,265.915C515.987,266.975 516.075,268.027 516.245,269.062L513.926,269.062C513.284,269.062 512.764,269.582 512.764,270.224L512.764,277.22C512.764,277.861 513.284,278.382 513.926,278.382L549.522,278.382C550.164,278.382 550.685,277.861 550.685,277.22L550.685,270.224C550.685,269.582 550.164,269.062 549.522,269.062L547.204,269.062C547.374,268.028 547.461,266.974 547.461,265.915C547.461,262.639 545.771,259.279 542.438,255.929C540.387,253.866 538.041,252.139 536.08,250.862C538.041,249.585 540.387,247.857 542.438,245.795C545.771,242.444 547.461,239.084 547.461,235.809C547.461,234.498 547.328,233.201 547.069,231.936L549.522,231.936C550.164,231.936 550.685,231.416 550.685,230.774" style="fill:white;fill-rule:nonzero;"/>
    </g>
    <g transform="matrix(2.94717,-2.94538,-2.94538,-2.94717,83.6065,101.107)">
        <rect x="-1.161" y="0.481" width="2.323" height="2.324" style="fill:white;"/>
    </g>
    <g transform="matrix(2.94628,2.94628,2.94628,-2.94628,42.7651,171.597)">
        <rect x="0.481" y="-1.161" width="2.323" height="2.323" style="fill:white;"/>
    </g>
    <g transform="matrix(2.94628,2.94628,2.94628,-2.94628,64.144,171.596)">
        <rect x="0.482" y="-1.162" width="2.324" height="2.324" style="fill:white;"/>
    </g>
    <g transform="matrix(2.94628,-2.94628,-2.94628,-2.94628,95.2072,181.275)">
        <rect x="-1.162" y="0.481" width="2.324" height="2.324" style="fill:white;"/>
    </g>
    <g transform="matrix(-2.94717,2.94538,2.94538,2.94717,63.3345,163.33)">
        <rect x="-1.162" y="-2.805" width="2.323" height="2.324" style="fill:white;"/>
    </g>
    <g transform="matrix(2.94538,2.94717,2.94717,-2.94538,75.0408,153.644)">
        <rect x="0.481" y="-1.162" width="2.322" height="2.324" style="fill:white;"/>
    </g>
    <g transform="matrix(-2.94717,-2.94538,-2.94538,2.94717,60.4136,75.2882)">
        <rect x="-2.805" y="-1.161" width="2.324" height="2.323" style="fill:white;"/>
    </g>
    <g transform="matrix(-2.94717,-2.94538,-2.94538,2.94717,85.6249,75.2882)">
        <rect x="-2.805" y="-1.161" width="2.324" height="2.323" style="fill:white;"/>
    </g>
    <g transform="matrix(-2.94717,-2.94538,-2.94538,2.94717,96.4147,153.649)">
        <rect x="-2.805" y="-1.162" width="2.324" height="2.323" style="fill:white;"/>
    </g>
    <g transform="matrix(2.94628,-2.94628,-2.94628,-2.94628,116.586,181.275)">
        <rect x="-1.162" y="0.481" width="2.324" height="2.324" style="fill:white;"/>
    </g>
</svg>
